# xmcd
#
# Track frame offsets: 
#        150
#        14772
#        32251
#        48005
#        63437
#        76451
#        91403
#        110203
#        125061
#        137068
#        151941
#        168716
#        181322
#
# Disc length: 2581 seconds
#
# Revision: 0
# Processed by: cddbd v1.5.2PL0 Copyright (c) Steve Scherf et al.
# Submitted via: ExactAudioCopy v1.0b3
#
DISCID=ad0a130d
DTITLE=Various Artist - Lowe Country The Songs Of Nick Lowe
DYEAR=2012
DGENRE=Country
TTITLE0=Caitlin Rose - Lately I've Let Things Slide
TTITLE1=The Parson Red Heads - Don't Lose Your Grip On Love
TTITLE2=Robert Ellis - All Men Are Liars
TTITLE3=Amanda Shires - I Love The Sound Of Breaking Glass
TTITLE4=Jeff The Brotherhood - Marie Provost
TTITLE5=Hayes Carll - (I'm Gonna Start) Living Again If It Kills Me 
TTITLE6=Erin Enderlin - Lover Don't Go
TTITLE7=The Unsinkable Boxer - When I Write The Book
TTITLE8=Colin Gilmore - You Make Me
TTITLE9=Chatham County Line - Heart Of The City
TTITLE10=Lori Mckenna - What's Shakin' On The Hill
TTITLE11=Griffin House - Cracking Up
TTITLE12=Ron Sexsmith - Where's My Everything?
EXTD=
EXTT0=
EXTT1=
EXTT2=
EXTT3=
EXTT4=
EXTT5=
EXTT6=
EXTT7=
EXTT8=
EXTT9=
EXTT10=
EXTT11=
EXTT12=
PLAYORDER=
